<mxfile host="app.diagrams.net" agent="Mozilla/5.0 (Windows NT 10.0; Win64; x64; rv:133.0) Gecko/20100101 Firefox/133.0" version="25.0.3">
  <diagram id="e5dMAXsp1UKPFsJzR93-" name="Page-1">
    <mxGraphModel dx="1420" dy="704" grid="1" gridSize="10" guides="1" tooltips="1" connect="1" arrows="1" fold="1" page="1" pageScale="1" pageWidth="827" pageHeight="1169" math="1" shadow="0">
      <root>
        <mxCell id="0" />
        <mxCell id="1" parent="0" />
        <mxCell id="_uS6bdUUAYo8R07VhN7j-2" value="milieu 2&amp;nbsp; = Plexiglas d&#39;indice \(n_2\)" style="text;html=1;resizable=0;autosize=1;align=center;verticalAlign=middle;points=[];fillColor=none;strokeColor=none;rounded=0;" parent="1" vertex="1">
          <mxGeometry x="320" y="350" width="210" height="30" as="geometry" />
        </mxCell>
        <mxCell id="_uS6bdUUAYo8R07VhN7j-3" value="milieu 1 = Air&amp;nbsp; d&#39;indice \(n_1\)" style="text;html=1;resizable=0;autosize=1;align=center;verticalAlign=middle;points=[];fillColor=none;strokeColor=none;rounded=0;" parent="1" vertex="1">
          <mxGeometry x="320" y="300" width="180" height="30" as="geometry" />
        </mxCell>
        <mxCell id="_uS6bdUUAYo8R07VhN7j-8" value="normale au dioptre" style="text;html=1;resizable=0;autosize=1;align=center;verticalAlign=middle;points=[];fillColor=none;strokeColor=none;rounded=0;" parent="1" vertex="1">
          <mxGeometry x="220" y="160" width="120" height="20" as="geometry" />
        </mxCell>
        <mxCell id="_uS6bdUUAYo8R07VhN7j-15" value="&amp;nbsp;\(i_2\)" style="text;html=1;resizable=0;autosize=1;align=center;verticalAlign=middle;points=[];fillColor=none;strokeColor=none;rounded=0;" parent="1" vertex="1">
          <mxGeometry x="283" y="419" width="50" height="20" as="geometry" />
        </mxCell>
        <mxCell id="_uS6bdUUAYo8R07VhN7j-22" value="" style="curved=1;endArrow=none;html=1;rounded=0;endFill=0;" parent="1" edge="1">
          <mxGeometry width="50" height="50" relative="1" as="geometry">
            <mxPoint x="314" y="398" as="sourcePoint" />
            <mxPoint x="284" y="402" as="targetPoint" />
            <Array as="points">
              <mxPoint x="304" y="420" />
            </Array>
          </mxGeometry>
        </mxCell>
        <mxCell id="_uS6bdUUAYo8R07VhN7j-23" value="&lt;span&gt;I&lt;/span&gt;" style="text;html=1;resizable=0;autosize=1;align=center;verticalAlign=middle;points=[];fillColor=none;strokeColor=none;rounded=0;fontStyle=1" parent="1" vertex="1">
          <mxGeometry x="262" y="340" width="20" height="20" as="geometry" />
        </mxCell>
        <mxCell id="_uS6bdUUAYo8R07VhN7j-1" value="" style="endArrow=none;html=1;rounded=0;strokeWidth=1.5;" parent="1" edge="1">
          <mxGeometry width="50" height="50" relative="1" as="geometry">
            <mxPoint x="163" y="340" as="sourcePoint" />
            <mxPoint x="403" y="340" as="targetPoint" />
          </mxGeometry>
        </mxCell>
        <mxCell id="_uS6bdUUAYo8R07VhN7j-7" value="" style="endArrow=none;dashed=1;html=1;rounded=0;" parent="1" edge="1">
          <mxGeometry width="50" height="50" relative="1" as="geometry">
            <mxPoint x="283" y="470" as="sourcePoint" />
            <mxPoint x="283" y="180" as="targetPoint" />
          </mxGeometry>
        </mxCell>
        <mxCell id="_uS6bdUUAYo8R07VhN7j-27" value="" style="group" parent="1" vertex="1" connectable="0">
          <mxGeometry x="160" y="193" width="127" height="146" as="geometry" />
        </mxCell>
        <mxCell id="_uS6bdUUAYo8R07VhN7j-4" value="" style="endArrow=none;html=1;rounded=0;strokeWidth=1.5;" parent="_uS6bdUUAYo8R07VhN7j-27" edge="1">
          <mxGeometry width="50" height="50" relative="1" as="geometry">
            <mxPoint x="65" y="77" as="sourcePoint" />
            <mxPoint x="122" y="146" as="targetPoint" />
          </mxGeometry>
        </mxCell>
        <mxCell id="_uS6bdUUAYo8R07VhN7j-5" value="" style="endArrow=classic;html=1;rounded=0;strokeWidth=1.5;" parent="_uS6bdUUAYo8R07VhN7j-27" edge="1">
          <mxGeometry width="50" height="50" relative="1" as="geometry">
            <mxPoint as="sourcePoint" />
            <mxPoint x="65" y="77" as="targetPoint" />
          </mxGeometry>
        </mxCell>
        <mxCell id="_uS6bdUUAYo8R07VhN7j-10" value="&amp;nbsp;\(i_1\)" style="text;html=1;resizable=0;autosize=1;align=center;verticalAlign=middle;points=[];fillColor=none;strokeColor=none;rounded=0;fontSize=13;" parent="_uS6bdUUAYo8R07VhN7j-27" vertex="1">
          <mxGeometry x="67" y="58" width="60" height="30" as="geometry" />
        </mxCell>
        <mxCell id="gK7Z0erLSURSkVGMxx5w-18" value="Dioptre air/plexiglas" style="text;html=1;align=center;verticalAlign=middle;resizable=0;points=[];autosize=1;strokeColor=none;fillColor=none;fontSize=13;" parent="_uS6bdUUAYo8R07VhN7j-27" vertex="1">
          <mxGeometry x="-90" y="116" width="140" height="30" as="geometry" />
        </mxCell>
        <mxCell id="_uS6bdUUAYo8R07VhN7j-28" value="" style="group" parent="1" vertex="1" connectable="0">
          <mxGeometry x="284" y="341" width="66" height="129" as="geometry" />
        </mxCell>
        <mxCell id="_uS6bdUUAYo8R07VhN7j-19" value="" style="endArrow=none;html=1;rounded=0;strokeWidth=1.5;" parent="_uS6bdUUAYo8R07VhN7j-28" edge="1">
          <mxGeometry width="50" height="50" relative="1" as="geometry">
            <mxPoint x="34.853932584269664" y="67.64634146341464" as="sourcePoint" />
            <mxPoint x="66" y="129" as="targetPoint" />
          </mxGeometry>
        </mxCell>
        <mxCell id="_uS6bdUUAYo8R07VhN7j-20" value="" style="endArrow=classic;html=1;rounded=0;strokeWidth=1.5;" parent="_uS6bdUUAYo8R07VhN7j-28" edge="1">
          <mxGeometry width="50" height="50" relative="1" as="geometry">
            <mxPoint as="sourcePoint" />
            <mxPoint x="34.853932584269664" y="67.64634146341464" as="targetPoint" />
          </mxGeometry>
        </mxCell>
        <mxCell id="_uS6bdUUAYo8R07VhN7j-31" value="" style="group" parent="1" vertex="1" connectable="0">
          <mxGeometry x="390" y="10" width="310" height="50" as="geometry" />
        </mxCell>
        <mxCell id="_uS6bdUUAYo8R07VhN7j-30" value="" style="rounded=1;whiteSpace=wrap;html=1;fontSize=17;strokeColor=default;strokeWidth=1.5;" parent="_uS6bdUUAYo8R07VhN7j-31" vertex="1">
          <mxGeometry x="21.5" width="267" height="50" as="geometry" />
        </mxCell>
        <mxCell id="_uS6bdUUAYo8R07VhN7j-25" value="&lt;font style=&quot;font-size: 17px;&quot;&gt;$$n_1\times sin i_1 =n_2\times sin i_2&amp;nbsp;&lt;br&gt;$$&lt;/font&gt;" style="text;html=1;resizable=0;autosize=1;align=center;verticalAlign=middle;points=[];fillColor=none;strokeColor=none;rounded=0;" parent="_uS6bdUUAYo8R07VhN7j-31" vertex="1">
          <mxGeometry y="5" width="310" height="40" as="geometry" />
        </mxCell>
        <mxCell id="gK7Z0erLSURSkVGMxx5w-12" value="" style="curved=1;endArrow=none;html=1;rounded=0;endFill=0;" parent="1" edge="1">
          <mxGeometry width="50" height="50" relative="1" as="geometry">
            <mxPoint x="285" y="277" as="sourcePoint" />
            <mxPoint x="320" y="290" as="targetPoint" />
            <Array as="points">
              <mxPoint x="310" y="260" />
            </Array>
          </mxGeometry>
        </mxCell>
        <mxCell id="gK7Z0erLSURSkVGMxx5w-14" value="" style="curved=1;endArrow=none;html=1;rounded=0;endFill=0;" parent="1" edge="1">
          <mxGeometry width="50" height="50" relative="1" as="geometry">
            <mxPoint x="252" y="304" as="sourcePoint" />
            <mxPoint x="282" y="294" as="targetPoint" />
            <Array as="points">
              <mxPoint x="262" y="264" />
            </Array>
          </mxGeometry>
        </mxCell>
        <mxCell id="gK7Z0erLSURSkVGMxx5w-15" value="" style="endArrow=none;html=1;rounded=0;curved=1;strokeWidth=2;" parent="1" edge="1">
          <mxGeometry width="50" height="50" relative="1" as="geometry">
            <mxPoint x="280" y="340" as="sourcePoint" />
            <mxPoint x="390" y="200" as="targetPoint" />
          </mxGeometry>
        </mxCell>
        <mxCell id="gK7Z0erLSURSkVGMxx5w-17" value="&amp;nbsp;\(i&#39;_1\)" style="text;html=1;resizable=0;autosize=1;align=center;verticalAlign=middle;points=[];fillColor=none;strokeColor=none;rounded=0;fontSize=13;" parent="1" vertex="1">
          <mxGeometry x="273" y="240" width="60" height="30" as="geometry" />
        </mxCell>
        <mxCell id="gK7Z0erLSURSkVGMxx5w-19" value="" style="endArrow=classic;html=1;rounded=0;strokeWidth=1;fontSize=13;curved=1;" parent="1" edge="1">
          <mxGeometry width="50" height="50" relative="1" as="geometry">
            <mxPoint x="353" y="246" as="sourcePoint" />
            <mxPoint x="371" y="225" as="targetPoint" />
          </mxGeometry>
        </mxCell>
      </root>
    </mxGraphModel>
  </diagram>
</mxfile>
